<svg width="48" height="48" viewBox="0 0 48 48" fill="none" xmlns="http://www.w3.org/2000/svg">
<g clip-path="url(#clip0_28_4707)">
<path d="M46.2329 46.2799C39.413 47.0365 34.0044 44.0167 33.9502 43.9864C33.7667 43.8816 33.5492 43.8534 33.3452 43.9094C33.2592 43.9325 24.6807 46.232 17.7714 44.6983C13.464 43.7406 9.40124 40.7066 6.43457 38.4914C6.03613 38.194 5.65857 37.9116 5.30408 37.6527C4.81995 37.2986 4.05017 37.0042 3.37158 36.7442C3.06689 36.6277 2.64941 36.4677 2.55969 36.4116C2.48206 36.3509 2.43958 36.2615 2.43958 36.1593V34.31C2.47803 32.8466 8.61352 10.3294 9.56494 7.46487C9.58838 7.43118 9.67993 7.36489 9.74731 7.33303L21.8894 1.78713L25.8148 6.89761C26.0085 7.16238 25.9902 7.53262 25.772 7.77688L21.8931 12.1253C21.6393 12.4102 21.2119 12.4413 20.9468 12.2197L19.3783 10.7736C19.1945 10.6044 18.933 10.5484 18.688 10.5934C18.4423 10.6374 18.2225 10.8124 18.109 11.0351C17.9779 11.2932 16.7903 11.6096 15.5789 11.6188L15.1841 11.5789C14.8677 11.5412 14.5608 11.7063 14.4062 11.985C14.251 12.2637 14.2773 12.6079 14.4722 12.8606C14.8091 13.296 15.0717 13.6458 15.2203 13.8465L15.9967 27.0436C15.5155 28.9179 15.0746 29.4503 14.9651 29.5569C14.6417 29.6591 14.407 29.9612 14.407 30.3179C14.407 30.7584 14.7644 31.1159 15.205 31.1159C16.1099 31.1159 16.8789 29.9268 17.4963 27.6054C23.8424 22.8571 29.3806 27.3384 29.8149 27.7072C31.8306 29.7301 31.9554 31.0738 31.9595 31.1334C31.969 31.5656 32.3224 31.9135 32.7574 31.9135C33.198 31.9135 33.5554 31.5564 33.5554 31.1159C33.5554 30.9324 33.4888 29.3581 31.4237 27.0835C33.3712 24.6892 35.5886 23.3101 38.0309 23.0098C42.2416 22.4912 45.781 25.3228 45.8165 25.351C46.1586 25.6293 46.6603 25.578 46.9386 25.2367C47.2169 24.8958 47.1667 24.3941 46.8262 24.1154C46.6614 23.981 42.7433 20.829 37.8522 21.4241C34.9932 21.7709 32.4268 23.317 30.2145 26.0233C28.4189 24.8024 23.2708 22.039 17.5132 25.6531L16.7991 13.5165C16.7917 13.3854 16.7515 13.2583 16.683 13.1466C17.3971 13.062 18.2474 12.8756 18.8641 12.4699L19.8921 13.4173C20.849 14.2204 22.2505 14.1204 23.0833 13.188L26.9622 8.83926C27.6777 8.03762 27.7374 6.82546 27.0918 5.94143L22.7676 0.311669C22.542 0.0176013 22.1428 -0.0823742 21.8033 0.0721667L9.09399 5.87734C8.96106 5.93557 8.28686 6.26186 8.06531 6.92837C7.6134 8.28481 0.843994 32.4265 0.843994 34.3074V36.1597C0.843994 36.7541 1.11096 37.3037 1.57568 37.6681C1.80823 37.8501 2.15576 37.9878 2.80139 38.2346C3.32874 38.4368 4.05054 38.7125 4.36218 38.9407C4.71301 39.197 5.08581 39.4757 5.47986 39.7702C8.56226 42.0722 12.7836 45.2245 17.4257 46.2561C24.0339 47.7246 31.7914 45.9492 33.454 45.5303C34.5643 46.1041 38.6381 48 43.9712 48C44.7582 48 45.573 47.959 46.4091 47.8656C46.847 47.8173 47.1623 47.4225 47.114 46.9849C47.0649 46.5462 46.6691 46.2283 46.2329 46.2799Z" fill="black"/>
<path d="M42.3248 36.6121C42.2809 36.2129 41.9429 35.9023 41.5316 35.9023C41.0911 35.9023 40.7336 36.2598 40.7336 36.7003C40.7336 37.2332 41.1273 39.0375 46.1876 39.8805C46.2319 39.8878 46.2763 39.8915 46.3195 39.8915C46.7025 39.8915 47.0405 39.615 47.1057 39.225C47.1779 38.7903 46.8842 38.3794 46.4498 38.3065C42.9111 37.7169 42.3721 36.7183 42.3248 36.6121Z" fill="#D6BB09"/>
<path d="M27.006 40.7078C16.5562 42.9461 12.0844 35.7962 11.8994 35.4911C11.6713 35.1143 11.1824 34.9931 10.8056 35.2194C10.4276 35.4461 10.3053 35.9361 10.532 36.314C10.5847 36.4015 11.8544 38.4856 14.5691 40.261C16.4397 41.4838 19.2921 42.7297 23.1502 42.7297C24.4352 42.7297 25.8316 42.5916 27.34 42.2686C27.771 42.1763 28.0457 41.7519 27.9534 41.3212C27.8607 40.8906 27.437 40.6148 27.006 40.7078Z" fill="#D6BB09"/>
</g>
<defs>
<clipPath id="clip0_28_4707">
<rect width="48" height="48" fill="white"/>
</clipPath>
</defs>
</svg>
